<svg xmlns="http://www.w3.org/2000/svg" viewBox="0 0 1000 64" width="1000" height="64">
<title>RECEIPTS</title>
<defs><linearGradient id="ln" x1="0" x2="1"><stop offset="0" stop-color="#00E5FF"/><stop offset="1" stop-color="#1E6FFF" stop-opacity=".2"/></linearGradient></defs>
<style>
  .a{animation:ja 5s infinite} .b{animation:jb 5s infinite}
  @keyframes ja{0%,92%,100%{transform:translate(-2px,0)}94%{transform:translate(-8px,1px)}97%{transform:translate(5px,0)}}
  @keyframes jb{0%,92%,100%{transform:translate(2px,0)}95%{transform:translate(8px,-1px)}98%{transform:translate(-5px,0)}}
  .bk{animation:bk 1s steps(1) infinite} @keyframes bk{50%{opacity:0}}
  @media (prefers-reduced-motion:reduce){*{animation:none!important}}
</style>
<path d="M4 14V4H16 M4 50V60H16" fill="none" stroke="#00E5FF" stroke-width="2"/>
<g font-family="'Courier New', Courier, 'SF Mono', Consolas, monospace" font-weight="700" font-size="32">
  <text class="a" x="44" y="45" textLength="152" lengthAdjust="spacing" fill="#1E6FFF">RECEIPTS</text>
  <text class="b" x="44" y="45" textLength="152" lengthAdjust="spacing" fill="#00E5FF" opacity=".85">RECEIPTS</text>
  <text x="44" y="45" textLength="152" lengthAdjust="spacing" fill="#EAF6FF">RECEIPTS</text>
</g>
<rect class="bk" x="202" y="20" width="10" height="28" fill="#00E5FF"/>
<text x="996" y="24" text-anchor="end" font-family="'Courier New', Courier, 'SF Mono', Consolas, monospace" font-size="12" fill="#9CC9FF">resumes let you lie a little. this doesn't</text>
<line x1="226" y1="40" x2="996" y2="40" stroke="url(#ln)" stroke-width="2"/>
<g stroke="#00E5FF" stroke-opacity=".55"><line x1="258" y1="40" x2="258" y2="50"/><line x1="298" y1="40" x2="298" y2="46"/><line x1="338" y1="40" x2="338" y2="50"/><line x1="378" y1="40" x2="378" y2="46"/><line x1="418" y1="40" x2="418" y2="50"/><line x1="458" y1="40" x2="458" y2="46"/><line x1="498" y1="40" x2="498" y2="50"/><line x1="538" y1="40" x2="538" y2="46"/><line x1="578" y1="40" x2="578" y2="50"/><line x1="618" y1="40" x2="618" y2="46"/><line x1="658" y1="40" x2="658" y2="50"/><line x1="698" y1="40" x2="698" y2="46"/><line x1="738" y1="40" x2="738" y2="50"/><line x1="778" y1="40" x2="778" y2="46"/><line x1="818" y1="40" x2="818" y2="50"/><line x1="858" y1="40" x2="858" y2="46"/><line x1="898" y1="40" x2="898" y2="50"/><line x1="938" y1="40" x2="938" y2="46"/><line x1="978" y1="40" x2="978" y2="50"/></g>
<circle r="3.5" cy="40" fill="#fff"><animate attributeName="cx" values="226;996" dur="3.2s" repeatCount="indefinite"/><animate attributeName="opacity" values="0;1;1;0" dur="3.2s" repeatCount="indefinite"/></circle>
</svg>